<svg width="71" height="71" viewBox="0 0 71 71" fill="none" xmlns="http://www.w3.org/2000/svg">
<path d="M56.6085 64.0445C50.5059 68.5803 43.1 71.0202 35.4966 70.9999C15.8604 70.9999 0 55.1108 0 35.4999C0 15.8619 15.8876 1.3004e-05 35.4966 1.3004e-05C44.2542 -0.00748869 52.7038 3.23091 59.2135 9.08971C59.2938 9.1629 59.3488 9.2598 59.3703 9.36634C59.3918 9.47287 59.3788 9.5835 59.3331 9.68213C59.2875 9.78077 59.2116 9.86228 59.1165 9.91483C59.0213 9.96738 58.9119 9.98823 58.8041 9.97435C56.1135 9.61508 53.4016 9.43908 50.6872 9.44757C32.1717 9.44757 18.8547 17.1015 18.8547 31.6851C18.8547 47.2879 32.0414 52.5671 44.1647 57.2694C48.9796 59.1303 53.5255 60.8996 56.6171 63.2228C56.6805 63.2706 56.732 63.3324 56.7674 63.4035C56.8029 63.4745 56.8213 63.5528 56.8213 63.6322C56.8213 63.7116 56.8029 63.7899 56.7674 63.861C56.732 63.932 56.6805 63.9938 56.6171 64.0416L56.6085 64.0445ZM70.8501 32.2205C70.8375 32.0848 70.7723 31.9594 70.6683 31.8712C63.2598 25.716 57.2683 23.2138 49.9887 23.2138C37.947 23.2138 38.5024 30.6817 38.5024 30.8907C38.5024 36.9886 45.9538 39.7657 54.5818 42.985C59.0289 44.644 63.6262 46.3589 67.8472 48.7008C67.9106 48.7347 67.9804 48.7549 68.0521 48.76C68.1237 48.7651 68.1957 48.7551 68.2633 48.7305C68.3308 48.7059 68.3924 48.6674 68.444 48.6173C68.4956 48.5673 68.5361 48.507 68.5629 48.4402C70.574 43.2846 71.3571 37.7313 70.8501 32.2205Z" fill="white"/>
</svg>
